<svg width="512" height="512" xmlns="http://www.w3.org/2000/svg">

 <g>
  <title>background</title>
  <rect fill="none" id="canvas_background" height="402" width="582" y="-1" x="-1"/>
 </g>
 <g>
  <title>Layer 1</title>
  <path id="svg_4" fill="#ffffff" d="m255.969,21.733c-131.739,0 -238.572,107.541 -238.572,240.206c0,106.107 68.362,196.121 163.205,227.91c11.929,2.22 16.285,-5.196 16.285,-11.567c0,-5.713 -0.205,-20.817 -0.33,-40.856c-66.36,14.507 -80.375,-32.208 -80.375,-32.208c-10.828,-27.756 -26.489,-35.139 -26.489,-35.139c-21.684,-14.893 1.613,-14.591 1.613,-14.591c23.948,1.701 36.534,24.759 36.534,24.759c21.295,36.694 55.866,26.105 69.465,19.947c2.146,-15.521 8.318,-26.105 15.154,-32.116c-52.974,-6.073 -108.69,-26.681 -108.69,-118.699c0,-26.229 9.31,-47.668 24.576,-64.478c-2.475,-6.071 -10.646,-30.507 2.329,-63.554c0,0 20.045,-6.455 65.613,24.614c19.031,-5.325 39.432,-7.982 59.742,-8.072c20.25,0.123 40.676,2.747 59.738,8.105c45.547,-31.074 65.559,-24.614 65.559,-24.614c13.002,33.077 4.832,57.482 2.387,63.549c15.297,16.81 24.516,38.25 24.516,64.482c0,92.258 -55.773,112.563 -108.92,118.512c8.559,7.422 16.191,22.069 16.191,44.471c0,32.124 -0.297,58.019 -0.297,65.888c0,6.427 4.293,13.903 16.402,11.54c94.697,-31.824 162.998,-121.805 162.998,-227.883c0.001,-132.666 -106.832,-240.206 -238.634,-240.206l0,0zm0,0"/>
 </g>
</svg>