<svg viewBox="0 0 512 512" xml:space="preserve" xmlns="http://www.w3.org/2000/svg" fill-rule="evenodd" clip-rule="evenodd" stroke-linejoin="round" stroke-miterlimit="2"><path d="M256 0c141.29 0 256 114.71 256 256 0 141.29-114.71 256-256 256C114.71 512 0 397.29 0 256 0 114.71 114.71 0 256 0Zm149.439 390.919v-5.04l-23.389-22.963a6.999 6.999 0 0 1-2.661-6.721V187.476a7 7 0 0 1 2.661-6.722L406 157.792v-5.041h-82.912l-59.105 147.438-67.227-147.438h-86.975v5.041l28.012 33.744a11.616 11.616 0 0 1 3.781 9.802v132.595a15.266 15.266 0 0 1-4.06 13.161L106 385.318v5.04h89.356v-5.04l-31.513-38.224a15.821 15.821 0 0 1-4.342-13.161V219.26l78.433 171.098h9.103l67.367-171.098v136.376c0 3.639 0 4.34-2.382 6.719l-24.229 23.524v5.04h117.646Z" fill="#ffffff" class="fill-000000"></path></svg>