<?xml version="1.0" ?><svg viewBox="3231 1082 120 120" xmlns="http://www.w3.org/2000/svg"><defs><style>
      .cls-1 {
        fill: #21759b;
      }

      .cls-2 {
        fill: #fff;
      }
    </style></defs><g data-name="Group 77" id="Group_77" transform="translate(3124 622)"><circle class="cls-1" cx="60" cy="60" data-name="Ellipse 58" id="Ellipse_58" r="60" transform="translate(107 460)"/><g data-name="Group 76" id="Group_76"><circle class="cls-2" cx="38" cy="38" data-name="Ellipse 59" id="Ellipse_59" r="38" transform="translate(129 482)"/><ellipse class="cls-1" cx="33" cy="32.5" data-name="Ellipse 60" id="Ellipse_60" rx="33" ry="32.5" transform="translate(134 487)"/><path class="cls-2" d="M2255.9,269.8l16.1,43.7,4.4,1.9,10.2-28.9,10.8,29.4,5-4.3s8.7-25.1,11.1-32,1.3-11.7,1.3-11.7-.4-8.4-6.6-8.4-6.1,5.9-6.1,5.9a13.475,13.475,0,0,0,1.2,4.1,37.719,37.719,0,0,0,3,5,18.163,18.163,0,0,1,1.6,5.6,24.875,24.875,0,0,1-.4,6.4l-5.1,16.5-11.9-34.8,4.3-.3s.8-.775.8-1.4-.8-1.1-.8-1.1h-18.7a1.629,1.629,0,0,0-.6,1.1,2.944,2.944,0,0,0,.6,1.4l3.6.3,5.4,14-7.2,21.3-11.8-35.3,3.8-.3a1.839,1.839,0,0,0,1.1-1.4c.1-1-1.1-1.1-1.1-1.1s-4.575.3-7.4.3a16.745,16.745,0,0,1-3.9-.3Z" data-name="Path 171" id="Path_171" transform="translate(-2119 236)"/></g></g></svg>